REM GENRE "Avant-Garde Metal"
REM DATE 2023
REM DISCID 7D105309
REM COMMENT "ExactAudioCopy v1.6"
PERFORMER "Dødheimsgard"
TITLE "Black Medium Current"
REM COMPOSER ""
FILE "Dødheimsgard - Black Medium Current.flac" WAVE
  TRACK 01 AUDIO
    TITLE "Et Smelter"
    PERFORMER "Dødheimsgard"
    REM COMPOSER ""
    ISRC GBCQV2200266
    FLAGS DCP
    INDEX 01 00:00:00
  TRACK 02 AUDIO
    TITLE "Tankespinnerens Smerte"
    PERFORMER "Dødheimsgard"
    REM COMPOSER ""
    ISRC GBCQV2200267
    FLAGS DCP
    INDEX 01 10:19:19
  TRACK 03 AUDIO
    TITLE "Interstellar Nexus"
    PERFORMER "Dødheimsgard"
    REM COMPOSER ""
    ISRC GBCQV2200268
    FLAGS DCP
    INDEX 01 18:02:40
  TRACK 04 AUDIO
    TITLE "It Does Not Follow"
    PERFORMER "Dødheimsgard"
    REM COMPOSER ""
    ISRC GBCQV2200269
    FLAGS DCP
    INDEX 01 26:04:34
  TRACK 05 AUDIO
    TITLE "Voyager"
    PERFORMER "Dødheimsgard"
    REM COMPOSER ""
    ISRC GBCQV2200270
    FLAGS DCP
    INDEX 01 34:28:13
  TRACK 06 AUDIO
    TITLE "Halow"
    PERFORMER "Dødheimsgard"
    REM COMPOSER ""
    ISRC GBCQV2200271
    FLAGS DCP
    INDEX 01 36:14:35
  TRACK 07 AUDIO
    TITLE "Det Tomme Kalde Mørke"
    PERFORMER "Dødheimsgard"
    REM COMPOSER ""
    ISRC GBCQV2200272
    FLAGS DCP
    INDEX 01 45:52:67
  TRACK 08 AUDIO
    TITLE "Abyss Perihelion Transit"
    PERFORMER "Dødheimsgard"
    REM COMPOSER ""
    ISRC GBCQV2200273
    FLAGS DCP
    INDEX 01 53:27:73
  TRACK 09 AUDIO
    TITLE "Requiem Aeternum"
    PERFORMER "Dødheimsgard"
    REM COMPOSER ""
    ISRC GBCQV2200274
    FLAGS DCP
    INDEX 01 64:27:12
